# xmcd CD database file
#
# Track frame offsets:
#	150
#	14328
#	25458
#	45260
#	63815
#	79903
#	92745
#	113508
#	129580
#	141298
#	160708
#
# Disc length: 2289 seconds
#
# Revision: 6
# Processed by: cddbd v1.5.2PL0 Copyright (c) Steve Scherf et al.
# Submitted via: CdAid (MTCDDB.DLL V2003.12.21)
#
DISCID=8208ef0b
DTITLE=The Paul Butterfield Blues Band - The Paul Butterfield Blues Band
DYEAR=1965
DGENRE=Blues
TTITLE0=The Paul Butterfield Blues Band - Born in Chicago
TTITLE1=The Paul Butterfield Blues Band - Shake Your Money-Maker
TTITLE2=The Paul Butterfield Blues Band - Blues with a Feeling
TTITLE3=The Paul Butterfield Blues Band - Thank You Mr. Poobah
TTITLE4=The Paul Butterfield Blues Band featuring Sam Lay on vocal - I Got My 
TTITLE4=Mojo Working
TTITLE5=The Paul Butterfield Blues Band - Mellow Down Easy
TTITLE6=The Paul Butterfield Blues Band - Screamin'
TTITLE7=The Paul Butterfield Blues Band - Our Love Is Drifting
TTITLE8=The Paul Butterfield Blues Band - Mystery Train
TTITLE9=The Paul Butterfield Blues Band - Last Night
TTITLE10=The Paul Butterfield Blues Band - Look Over Yonders Wall
EXTD=ID3G:   0 YEAR: 1965
EXTT0=
EXTT1=
EXTT2=
EXTT3=
EXTT4=
EXTT5=
EXTT6=
EXTT7=
EXTT8=
EXTT9=
EXTT10=
PLAYORDER=
